<svg width="24" height="24" viewBox="0 0 24 24" fill="none" xmlns="http://www.w3.org/2000/svg">
<path d="M11.9622 7.93142C9.36988 7.90696 6.79884 8.40097 4.4002 9.38442C3.52793 9.6922 2.73413 10.1883 2.0752 10.8374C2.0752 9.67542 2.9472 8.51242 4.9812 7.63742C9.36839 5.8943 14.256 5.8943 18.6432 7.63742C20.6782 8.50942 21.5502 9.67242 21.5502 10.8374C21.061 10.1316 20.3416 9.61792 19.5152 9.38442C17.1185 8.40033 14.5489 7.90628 11.9582 7.93142M18.9342 9.96542C22.7122 11.7094 23.0032 14.6164 19.2242 16.3654C14.737 18.1091 9.75942 18.1091 5.2722 16.3654C1.2032 14.6214 1.2032 11.7144 4.9812 9.97042C9.46872 8.22649 14.4467 8.22649 18.9342 9.97042M17.1902 15.4934C20.0962 14.6214 19.8062 13.4584 17.1902 12.5864C13.855 11.7139 10.3514 11.7139 7.0162 12.5864C4.1092 13.4584 4.1092 14.6214 7.0162 15.4934C10.3514 16.3659 13.855 16.3659 17.1902 15.4934Z" fill="#C4A386"/>
</svg>
