<svg width="25" height="24" viewBox="0 0 25 24" fill="none" xmlns="http://www.w3.org/2000/svg">
<path d="M20.1391 10.0836C20.9796 9.95434 21.7402 9.51253 22.2689 8.84653C22.7976 8.18052 23.0553 7.33946 22.9904 6.4916C22.9256 5.64375 22.543 4.85165 21.9192 4.27379C21.2954 3.69593 20.4764 3.37492 19.6261 3.375H18.5V1.875C18.4996 1.57675 18.381 1.29081 18.1701 1.07992C17.9592 0.869018 17.6733 0.750372 17.375 0.75H3.875C3.57675 0.750372 3.29081 0.869018 3.07992 1.07992C2.86902 1.29081 2.75037 1.57675 2.75 1.875V6.75C2.75037 7.04825 2.86902 7.33419 3.07992 7.54508C3.29081 7.75598 3.57675 7.87463 3.875 7.875H17.375C17.6733 7.87463 17.9592 7.75598 18.1701 7.54508C18.381 7.33419 18.4996 7.04825 18.5 6.75V4.875H19.6261C20.0983 4.87501 20.5532 5.05332 20.8996 5.37428C21.246 5.69523 21.4585 6.13515 21.4945 6.60603C21.5305 7.07691 21.3874 7.54402 21.0938 7.91392C20.8002 8.28382 20.3778 8.52923 19.911 8.60105L11.75 9.85655V13.125H9.125V23.25H15.875V13.125H13.25V11.1435L20.1391 10.0836ZM17 6.375H4.25V2.25H17V6.375ZM14.375 14.625V21.75H10.625V14.625H14.375Z" fill="#C4A386"/>
</svg>
