<svg width="24" height="24" viewBox="0 0 24 24" fill="none" xmlns="http://www.w3.org/2000/svg">
<path d="M22.3172 5.28027H1.68964C1.02628 5.28027 0.483398 5.88363 0.483398 6.48027C0.483398 7.07691 1.02628 7.67979 1.68964 7.67979H1.981V10.0798H22.0551V7.67979H22.3172C22.981 7.67979 23.5234 7.07691 23.5234 6.48027C23.5234 5.88363 22.981 5.28027 22.3172 5.28027ZM12.0034 8.88987C11.6703 8.88987 11.4005 8.61195 11.4005 8.26971C11.4005 7.92747 11.6703 7.64955 12.0034 7.64955C12.337 7.64955 12.6063 7.92747 12.6063 8.26971C12.6063 8.61195 12.337 8.88987 12.0034 8.88987ZM1.981 14.8793H22.0551V11.0403H1.981V14.8793ZM12.0034 12.2998C12.337 12.2998 12.6063 12.5772 12.6063 12.9195C12.6063 13.2622 12.337 13.5396 12.0034 13.5396C11.6703 13.5396 11.4005 13.2622 11.4005 12.9195C11.4 12.5772 11.6703 12.2998 12.0034 12.2998ZM1.981 18.1899V20.9806C1.981 21.3214 2.02372 21.6008 2.3554 21.6008H4.76692C5.0986 21.6008 5.24884 21.3214 5.24884 20.9806V19.1998H18.7872V20.9806C18.7872 21.3214 18.9082 21.6008 19.2394 21.6008H21.6514C21.9821 21.6008 22.0546 21.3214 22.0546 20.9806V15.8403H1.981V18.1899ZM12.0034 16.95C12.337 16.95 12.6063 17.228 12.6063 17.5697C12.6063 17.9129 12.337 18.1894 12.0034 18.1894C11.6703 18.1894 11.4005 17.9129 11.4005 17.5697C11.4 17.2284 11.6703 16.95 12.0034 16.95Z" fill="#C4A386"/>
</svg>
